<?xml version="1.0" encoding="utf-8"?>
<!-- Generator: Adobe Illustrator 22.0.0, SVG Export Plug-In . SVG Version: 6.00 Build 0)  -->
<svg version="1.1" id="Warstwa_1" xmlns="http://www.w3.org/2000/svg" xmlns:xlink="http://www.w3.org/1999/xlink" x="0px" y="0px"
	 viewBox="0 0 24 24" style="enable-background:new 0 0 24 24;" xml:space="preserve">
<style type="text/css">
	.st0{fill:none;}
</style>
<path class="st0" d="M0,0h24v24H0V0z"/>
<path d="M19,13v5c0,0.5-0.5,1-1,1H6c-0.6,0-1-0.5-1-1v-5c0-0.6-0.4-1-1-1s-1,0.4-1,1v6c0,1.1,0.9,2,2,2h14c1.1,0,2-0.9,2-2v-6
	c0-0.6-0.5-1-1-1S19,12.4,19,13z"/>
<path d="M11,6.4L9.1,8.3c-0.4,0.4-1,0.4-1.4,0c-0.4-0.4-0.4-1,0-1.4l3.6-3.6c0.4-0.4,1-0.4,1.4,0l3.6,3.6c0.4,0.4,0.4,1,0,1.4
	c-0.4,0.4-1,0.4-1.4,0L13,6.4v8.7c0,0.5-0.4,1-1,1s-1-0.5-1-1V6.4z"/>
</svg>
