<svg xmlns="http://www.w3.org/2000/svg" viewBox="0 0 24 24"><defs><style>.cls-1{fill:none;}.cls-2{fill:#ffe21f;}.cls-3{fill:#ffce1f;}.cls-4{fill:#999;}</style></defs><title>icon_bar_switch_left</title><g id="Warstwa_2" data-name="Warstwa 2"><g id="switch_icons"><rect class="cls-1" width="24" height="24"/><path class="cls-2" d="M10.28,12l3.64,5.65-2.59,1.5-3.06-6a1.49,1.49,0,0,0-1.46-.78,4.5,4.5,0,1,1,3.65-6.74,4.47,4.47,0,0,1-.13,4.7A1.52,1.52,0,0,0,10.28,12Z"/><circle class="cls-3" cx="6.56" cy="7.89" r="3.5"/><path class="cls-4" d="M16.29,21.4l-1.67-5a.5.5,0,0,0-.48-.35H9.87a.5.5,0,0,0-.48.35l-1.67,5a.5.5,0,0,0,.48.66h7.61A.5.5,0,0,0,16.29,21.4ZM12,18.31a1,1,0,1,1,1-1A1,1,0,0,1,12,18.31Z"/><circle class="cls-1" cx="12.01" cy="17.31" r="1"/></g></g></svg>