<svg xmlns="http://www.w3.org/2000/svg" viewBox="0 0 24 24"><defs><style>.cls-1{fill:#f2f2f2;stroke:#333;stroke-miterlimit:10;stroke-width:0.25px;}.cls-2{fill:none;}</style></defs><title>icon_bar_switch_neutral</title><g id="Warstwa_2" data-name="Warstwa 2"><g id="Warstwa_1-2" data-name="Warstwa 1"><rect class="cls-1" x="14.55" y="11.36" width="8.94" height="1.28" rx="0.5" ry="0.5" transform="translate(38.05 24) rotate(180)"/><circle class="cls-1" cx="22.22" cy="12" r="1.28"/><rect class="cls-1" x="0.51" y="11.36" width="8.94" height="1.28" rx="0.5" ry="0.5"/><circle class="cls-1" cx="1.78" cy="12" r="1.28"/><path class="cls-1" d="M17.1,12.31c0-.1,0-.21,0-.31s0-.21,0-.31L16,11.53a2.07,2.07,0,0,0,0-.22l1-.47a5.76,5.76,0,0,0-.18-.59l-1.11.17-.11-.24.83-.76a5.25,5.25,0,0,0-.33-.49l-1,.48a1.7,1.7,0,0,0-.22-.24l.55-1L15,7.83l-.83.76a2.37,2.37,0,0,0-.35-.19L14,7.28a4.4,4.4,0,0,0-.51-.18l-.55,1L12.46,8,12.27,6.9h-.54L11.54,8l-.44.08-.55-1a4.4,4.4,0,0,0-.51.18l.19,1.12a2.37,2.37,0,0,0-.35.19l-.83-.76-.44.35.55,1a1.7,1.7,0,0,0-.22.24l-1-.48a5.25,5.25,0,0,0-.33.49l.83.76-.11.24L7.2,10.25a5.76,5.76,0,0,0-.18.59l1,.47a2.07,2.07,0,0,0,0,.22l-1.11.16c0,.1,0,.21,0,.31s0,.21,0,.31L8,12.47a2.07,2.07,0,0,0,0,.22l-1,.47a5.76,5.76,0,0,0,.18.59l1.11-.17.11.24-.83.76a5.25,5.25,0,0,0,.33.49l1-.48a1.7,1.7,0,0,0,.22.24l-.55,1,.44.35.83-.76a2.37,2.37,0,0,0,.35.19L10,16.72a4.4,4.4,0,0,0,.51.18l.55-1,.44.08.19,1.11h.54L12.46,16l.44-.08.55,1a4.4,4.4,0,0,0,.51-.18l-.19-1.12a2.37,2.37,0,0,0,.35-.19l.83.76.44-.35-.55-1a1.7,1.7,0,0,0,.22-.24l1,.48a5.25,5.25,0,0,0,.33-.49l-.83-.76.11-.24,1.11.17a5.76,5.76,0,0,0,.18-.59l-1-.47a2.07,2.07,0,0,0,0-.22ZM12,13a1.1,1.1,0,1,1,1.1-1.09A1.09,1.09,0,0,1,12,13Z"/><rect class="cls-2" width="24" height="24"/></g></g></svg>