<svg xmlns="http://www.w3.org/2000/svg" viewBox="0 0 24 24"><defs><style>.cls-1{fill:#f2f2f2;stroke:#333;stroke-miterlimit:10;stroke-width:0.25px;}.cls-2{fill:none;}</style></defs><title>icon_bar_switch_right</title><g id="Warstwa_2" data-name="Warstwa 2"><g id="Warstwa_1-2" data-name="Warstwa 1"><rect class="cls-1" x="13.61" y="14.95" width="8.94" height="1.28" rx="0.5" ry="0.5" transform="translate(25.95 38.12) rotate(-150)"/><circle class="cls-1" cx="20.85" cy="17.18" r="1.28"/><rect class="cls-1" x="0.51" y="11.43" width="8.94" height="1.28" rx="0.5" ry="0.5"/><circle class="cls-1" cx="1.78" cy="12.07" r="1.28"/><path class="cls-1" d="M17.1,12.38c0-.1,0-.2,0-.31s0-.21,0-.31L16,11.6a1.55,1.55,0,0,0,0-.21l1-.48a5.76,5.76,0,0,0-.18-.59l-1.11.17c0-.08-.07-.16-.11-.23l.83-.76a4.32,4.32,0,0,0-.33-.5l-1,.48-.22-.24.55-1A4.94,4.94,0,0,0,15,7.9l-.83.76a3.9,3.9,0,0,0-.35-.19L14,7.36c-.16-.07-.34-.13-.51-.19l-.55,1a3.11,3.11,0,0,0-.44-.07L12.27,7h-.54l-.19,1.12a3.11,3.11,0,0,0-.44.07l-.55-1c-.17.06-.35.12-.51.19l.19,1.11a3.9,3.9,0,0,0-.35.19L9.05,7.9a4.94,4.94,0,0,0-.44.36l.55,1-.22.24L7.92,9a4.32,4.32,0,0,0-.33.5l.83.76c0,.07-.07.15-.11.23L7.2,10.32a5.76,5.76,0,0,0-.18.59l1,.48a1.55,1.55,0,0,0,0,.21l-1.11.16c0,.1,0,.21,0,.31s0,.21,0,.31L8,12.54a1.43,1.43,0,0,0,0,.22l-1,.47a5.76,5.76,0,0,0,.18.59l1.11-.16.11.23-.83.76a5.39,5.39,0,0,0,.33.5l1-.48.22.24-.55,1a4.94,4.94,0,0,0,.44.36l.83-.77.35.2L10,16.79a4.4,4.4,0,0,0,.51.18l.55-1a3.11,3.11,0,0,0,.44.08l.19,1.11h.54l.19-1.11A3.11,3.11,0,0,0,12.9,16l.55,1a4.4,4.4,0,0,0,.51-.18l-.19-1.11.35-.2.83.77a4.94,4.94,0,0,0,.44-.36l-.55-1,.22-.24,1,.48a5.39,5.39,0,0,0,.33-.5l-.83-.76.11-.23,1.11.16a5.76,5.76,0,0,0,.18-.59l-1-.47a1.43,1.43,0,0,0,0-.22ZM12,13.09A1.09,1.09,0,1,1,13.06,12,1.09,1.09,0,0,1,12,13.09Z"/><rect class="cls-2" width="24" height="24"/><rect class="cls-2" width="24" height="24"/></g></g></svg>